<svg version="1.1" id="Layer_1" xmlns="http://www.w3.org/2000/svg" xmlns:xlink="http://www.w3.org/1999/xlink" x="0px" y="0px"
	 width="100%" viewBox="0 0 272 300" enable-background="new 0 0 272 300" xml:space="preserve">
<path fill="#000000" opacity="1.000000" stroke="none" 
	d="
M155.000000,301.000000 
	C142.979111,301.000000 130.958206,301.000000 118.469818,300.569000 
	C117.946053,289.091766 117.889786,278.045502 117.905785,266.535583 
	C117.985115,234.079651 117.954529,202.087311 118.017471,170.095169 
	C118.043190,157.030640 112.276772,146.965668 101.631607,140.035263 
	C83.270584,128.081528 64.550354,116.680443 46.022095,104.982132 
	C40.305336,101.372711 35.531696,96.829132 36.081696,89.394226 
	C36.603962,82.334137 39.885948,77.003052 46.634579,73.637955 
	C57.244541,68.347473 67.559273,62.464928 78.350723,56.801495 
	C82.187134,54.312588 87.050171,52.596825 88.857697,49.237164 
	C92.195366,43.033474 93.741325,35.865818 96.033737,29.099762 
	C95.671936,28.654530 95.310127,28.209295 94.948326,27.764063 
	C92.527199,28.533024 89.911011,28.943693 87.720490,30.136242 
	C80.322006,34.164055 73.042076,38.414082 65.779823,42.686249 
	C60.099930,46.027557 54.513580,49.527882 48.522697,52.983551 
	C38.824444,58.136742 29.358580,63.042896 20.192945,68.457283 
	C12.070810,73.255241 5.407331,79.539299 2.854738,89.163849 
	C2.745046,89.577446 1.640896,89.727295 1.000001,90.000000 
	C1.000000,60.396156 1.000000,30.792313 1.000000,1.000000 
	C40.020691,1.000000 79.041687,1.000000 118.785217,1.349645 
	C109.505264,31.238310 99.502785,60.777332 89.271263,90.992729 
	C112.834190,90.992729 135.144562,91.042419 157.452911,90.853790 
	C158.634247,90.843796 160.401962,89.032188 160.875412,87.697113 
	C164.690857,76.937851 168.281082,66.098312 171.901855,55.270496 
	C177.949478,37.185314 183.968781,19.090664 190.000000,0.999999 
	C217.596115,1.000000 245.192245,1.000000 273.000000,1.000000 
	C273.000000,30.353889 273.000000,59.708286 272.680054,89.805161 
	C271.990295,90.215675 271.407227,89.949326 271.281921,89.542122 
	C268.373138,80.089722 262.335968,73.458038 253.633209,68.819534 
	C245.992752,64.747231 238.749954,59.934807 231.166168,55.748802 
	C220.735657,49.991486 210.170029,44.476746 199.601242,38.975300 
	C198.406921,38.353615 195.885803,37.879421 195.564514,38.371487 
	C193.467484,41.583157 191.199707,44.909267 190.180252,48.533409 
	C189.211136,51.978535 191.409927,54.650452 194.745697,56.381241 
	C205.470718,61.945976 216.071396,67.750175 226.792038,73.323502 
	C233.386948,76.752007 237.554672,81.818146 237.957504,89.370193 
	C238.371521,97.131714 233.269257,101.500114 227.432831,105.173340 
	C208.907074,116.832748 190.094696,128.058914 171.892380,140.201019 
	C162.429520,146.513336 156.171875,155.718109 156.031693,167.768524 
	C155.613861,203.683380 155.320969,239.599747 155.013229,275.515808 
	C154.940445,284.009949 155.000854,292.505249 155.000000,301.000000 
z"/>
<path fill="#E52129" opacity="1.000000" stroke="none" 
	d="
M155.416656,301.000000 
	C155.000854,292.505249 154.940445,284.009949 155.013229,275.515808 
	C155.320969,239.599747 155.613861,203.683380 156.031693,167.768524 
	C156.171875,155.718109 162.429520,146.513336 171.892380,140.201019 
	C190.094696,128.058914 208.907074,116.832748 227.432831,105.173340 
	C233.269257,101.500114 238.371521,97.131714 237.957504,89.370193 
	C237.554672,81.818146 233.386948,76.752007 226.792038,73.323502 
	C216.071396,67.750175 205.470718,61.945976 194.745697,56.381241 
	C191.409927,54.650452 189.211136,51.978535 190.180252,48.533409 
	C191.199707,44.909267 193.467484,41.583157 195.564514,38.371487 
	C195.885803,37.879421 198.406921,38.353615 199.601242,38.975300 
	C210.170029,44.476746 220.735657,49.991486 231.166168,55.748802 
	C238.749954,59.934807 245.992752,64.747231 253.633209,68.819534 
	C262.335968,73.458038 268.373138,80.089722 271.281921,89.542122 
	C271.407227,89.949326 271.990295,90.215675 272.680054,90.273819 
	C273.000000,133.354233 273.000000,176.708450 272.679565,220.257919 
	C271.909943,221.101746 271.257477,221.689499 271.042419,222.408173 
	C268.393188,231.260727 262.454956,238.091843 255.157959,242.732788 
	C236.284485,254.736450 216.762985,265.719604 197.529755,277.159851 
	C185.447372,284.346680 173.409119,291.607941 161.390274,298.900452 
	C160.741165,299.294281 160.455078,300.286407 160.000000,301.000000 
	C158.611115,301.000000 157.222214,301.000000 155.416656,301.000000 
z"/>
<path fill="#DAB96B" opacity="1.000000" stroke="none" 
	d="
M77.999008,56.833076 
	C67.559273,62.464928 57.244541,68.347473 46.634579,73.637955 
	C39.885948,77.003052 36.603962,82.334137 36.081696,89.394226 
	C35.531696,96.829132 40.305336,101.372711 46.022095,104.982132 
	C64.550354,116.680443 83.270584,128.081528 101.631607,140.035263 
	C112.276772,146.965668 118.043190,157.030640 118.017471,170.095169 
	C117.954529,202.087311 117.985115,234.079651 117.502342,266.545593 
	C114.154625,267.543915 111.282631,268.068542 108.410629,268.593170 
	C109.079857,270.281830 109.617538,270.578186 110.157005,270.871338 
	C111.618065,271.665253 113.079857,272.457855 114.541367,273.250977 
	C113.107285,274.165833 111.649719,275.046570 110.249146,276.010101 
	C109.558868,276.484985 108.973900,277.112915 108.254532,277.748199 
	C108.898682,278.203400 109.152657,278.536346 109.427689,278.554779 
	C115.960747,278.992035 115.995804,279.086212 114.217232,285.161316 
	C114.005226,285.885437 114.488319,286.962921 114.935181,287.704254 
	C116.946686,291.041351 115.044418,292.220795 112.178253,292.868530 
	C110.116440,293.334442 108.032578,293.702759 105.628136,294.060822 
	C104.527802,293.614136 103.757881,293.221252 102.824669,292.674255 
	C102.428818,292.328217 102.174866,292.170837 101.933037,292.037048 
	C101.966553,292.026123 101.944626,292.093140 101.896675,291.738464 
	C101.675392,289.470459 101.502060,287.557129 101.325150,285.604340 
	C97.677414,285.408264 94.281960,285.225739 90.523651,285.016937 
	C88.859146,284.339935 87.513771,283.763550 86.262413,283.027405 
	C66.279228,271.271790 46.275406,259.550598 26.347372,247.702042 
	C15.769853,241.413010 6.165070,234.153702 2.727173,221.382431 
	C2.656275,221.119064 1.597764,221.121552 0.999999,221.000000 
	C1.000000,177.645767 1.000000,134.291550 1.000001,90.468658 
	C1.640896,89.727295 2.745046,89.577446 2.854738,89.163849 
	C5.407331,79.539299 12.070810,73.255241 20.192945,68.457283 
	C29.358580,63.042896 38.824444,58.136742 48.946289,52.991913 
	C51.972889,52.520176 54.495857,52.579571 56.406193,51.527039 
	C67.247566,45.553787 77.928627,39.290154 88.709946,33.206333 
	C89.714935,32.639229 91.039070,32.637676 93.001762,32.196812 
	C92.030701,35.555695 91.534073,38.149166 90.538002,40.534031 
	C88.550240,45.293247 87.541313,50.795929 81.076180,52.238075 
	C79.773613,52.528637 79.010719,55.238586 77.999008,56.833076 
z"/>
<path fill="#E52028" opacity="1.000000" stroke="none" 
	d="
M189.531342,0.999999 
	C183.968781,19.090664 177.949478,37.185314 171.901855,55.270496 
	C168.281082,66.098312 164.690857,76.937851 160.875412,87.697113 
	C160.401962,89.032188 158.634247,90.843796 157.452911,90.853790 
	C135.144562,91.042419 112.834190,90.992729 89.271263,90.992729 
	C99.502785,60.777332 109.505264,31.238310 119.253876,1.349645 
	C142.354233,1.000000 165.708450,1.000000 189.531342,0.999999 
z"/>
<path fill="#000000" opacity="1.000000" stroke="none" 
	d="
M160.468658,301.000000 
	C160.455078,300.286407 160.741165,299.294281 161.390274,298.900452 
	C173.409119,291.607941 185.447372,284.346680 197.529755,277.159851 
	C216.762985,265.719604 236.284485,254.736450 255.157959,242.732788 
	C262.454956,238.091843 268.393188,231.260727 271.042419,222.408173 
	C271.257477,221.689499 271.909943,221.101746 272.679565,220.726578 
	C273.000000,247.606094 273.000000,274.212189 273.000000,301.000000 
	C235.645966,301.000000 198.291641,301.000000 160.468658,301.000000 
z"/>
<path fill="#000000" opacity="1.000000" stroke="none" 
	d="
M0.999999,221.468658 
	C1.597764,221.121552 2.656275,221.119064 2.727173,221.382431 
	C6.165070,234.153702 15.769853,241.413010 26.347372,247.702042 
	C46.275406,259.550598 66.279228,271.271790 86.262413,283.027405 
	C87.513771,283.763550 88.859146,284.339935 90.668579,285.337524 
	C94.765793,287.820648 98.355209,289.956879 101.944626,292.093140 
	C101.944626,292.093140 101.966553,292.026123 102.021782,292.284424 
	C102.380661,292.637939 102.684311,292.733154 102.987953,292.828400 
	C103.757881,293.221252 104.527802,293.614136 105.769226,294.379913 
	C108.827148,296.835205 111.413574,298.917603 114.000000,301.000000 
	C76.418900,301.000000 38.837803,301.000000 1.000000,301.000000 
	C1.000000,274.646332 1.000000,248.291824 0.999999,221.468658 
z"/>
<path fill="#D9B86A" opacity="1.000000" stroke="none" 
	d="
M114.399994,301.000000 
	C111.413574,298.917603 108.827148,296.835205 106.099640,294.433716 
	C108.032578,293.702759 110.116440,293.334442 112.178253,292.868530 
	C115.044418,292.220795 116.946686,291.041351 114.935181,287.704254 
	C114.488319,286.962921 114.005226,285.885437 114.217232,285.161316 
	C115.995804,279.086212 115.960747,278.992035 109.427689,278.554779 
	C109.152657,278.536346 108.898682,278.203400 108.254532,277.748199 
	C108.973900,277.112915 109.558868,276.484985 110.249146,276.010101 
	C111.649719,275.046570 113.107285,274.165833 114.541367,273.250977 
	C113.079857,272.457855 111.618065,271.665253 110.157005,270.871338 
	C109.617538,270.578186 109.079857,270.281830 108.410629,268.593170 
	C111.282631,268.068542 114.154625,267.543915 117.430069,267.009277 
	C117.889786,278.045502 117.946053,289.091766 118.001160,300.569000 
	C116.933327,301.000000 115.866661,301.000000 114.399994,301.000000 
z"/>
<path fill="#D9B86A" opacity="1.000000" stroke="none" 
	d="
M78.350723,56.801498 
	C79.010719,55.238586 79.773613,52.528637 81.076180,52.238075 
	C87.541313,50.795929 88.550240,45.293247 90.538002,40.534031 
	C91.534073,38.149166 92.030701,35.555695 93.001762,32.196812 
	C91.039070,32.637676 89.714935,32.639229 88.709946,33.206333 
	C77.928627,39.290154 67.247566,45.553787 56.406193,51.527039 
	C54.495857,52.579571 51.972889,52.520176 49.309254,52.965912 
	C54.513580,49.527882 60.099930,46.027557 65.779823,42.686249 
	C73.042076,38.414082 80.322006,34.164055 87.720490,30.136242 
	C89.911011,28.943693 92.527199,28.533024 94.948326,27.764063 
	C95.310127,28.209295 95.671936,28.654530 96.033737,29.099762 
	C93.741325,35.865818 92.195366,43.033474 88.857697,49.237164 
	C87.050171,52.596825 82.187134,54.312588 78.350723,56.801498 
z"/>
<path fill="#D9B86A" opacity="1.000000" stroke="none" 
	d="
M101.896675,291.738464 
	C98.355209,289.956879 94.765793,287.820648 91.031448,285.363800 
	C94.281960,285.225739 97.677414,285.408264 101.325150,285.604340 
	C101.502060,287.557129 101.675392,289.470459 101.896675,291.738464 
z"/>
<path fill="#D9B86A" opacity="1.000000" stroke="none" 
	d="
M102.824669,292.674255 
	C102.684311,292.733154 102.380661,292.637939 101.988266,292.295349 
	C102.174866,292.170837 102.428818,292.328217 102.824669,292.674255 
z"/>
</svg>